<svg xmlns="http://www.w3.org/2000/svg" xmlns:xlink="http://www.w3.org/1999/xlink" width="233.003" height="187.229" viewBox="0 0 233.003 187.229">
  <defs>
    <clipPath id="clip-path">
      <path id="Path_8305" data-name="Path 8305" d="M220,322.67s.255,7.359,2.031,12.013,9.39,17.851,11.249,21.149,2.368,4.227,2.368,4.227a68.8,68.8,0,0,0-4.144,5.672c-1.267,2.114-3.552,3.215-3.043,4.062s1.1.758,3.807.083,3.552-2.2,5.755-3.979,3.973-1.859,4.056-3.215-2.706-3.89-3.3-5.5a119.213,119.213,0,0,1-5.921-16.412c-1.948-7.7-3.807-10.148-3.89-11.078s.758-6.773.758-6.773Z" transform="translate(-220 -322.67)" fill="#fff" stroke="#263238" stroke-linecap="round" stroke-linejoin="round" stroke-width="0.75"/>
    </clipPath>
    <clipPath id="clip-path-2">
      <path id="Path_8311" data-name="Path 8311" d="M252.68,319.691a29.71,29.71,0,0,0,3.89,7.786c2.96,4.4,14.636,16.75,15.737,18.354s3.049,8.378,3.807,10.746,3.132,1.439,3.979-1.61-3.89-9.811-4.825-11.166-5.921-7.442-8.964-14.891-4.825-11.67-4.825-11.67S253.864,318.762,252.68,319.691Z" transform="translate(-252.68 -317.24)" fill="#fff" stroke="#263238" stroke-linecap="round" stroke-linejoin="round" stroke-width="0.75"/>
    </clipPath>
    <clipPath id="clip-path-3">
      <path id="Path_8318" data-name="Path 8318" d="M228.25,203.367a10.794,10.794,0,0,1-3.126-.42c-1.948-.509-3.552,0-5.672,2.451s-4.654,9.053-4.654,13.961,3.049,10.657,3.049,10.657-3.387,4.825-4.737,13.961.675,31.214.675,31.214a52.268,52.268,0,0,0,18.188.592,70.115,70.115,0,0,0,16.578-4.991,73.8,73.8,0,0,0-3.9-22.925,214.61,214.61,0,0,0-7.614-20.474s2.2-8.715,2.285-14.636-2.031-7.869-3.635-8.626S228.25,203.367,228.25,203.367Z" transform="translate(-212.646 -202.768)" fill="#263238" stroke="#263238" stroke-linecap="round" stroke-linejoin="round" stroke-width="0.75"/>
    </clipPath>
    <clipPath id="clip-path-4">
      <path id="Path_8324" data-name="Path 8324" d="M235.212,193.78a21.84,21.84,0,0,1-1.267,5.329c-.93,2.114-1.522,1.61-2.368,5.417s2.031,8.881,5.246,6.767,5.246-6.43,5.074-8.04-.93-1.942-.93-4.145a18.294,18.294,0,0,1,.592-4.316S237.16,195.13,235.212,193.78Z" transform="translate(-231.427 -193.78)" fill="#fff" stroke="#263238" stroke-linecap="round" stroke-linejoin="round" stroke-width="0.75"/>
    </clipPath>
    <clipPath id="clip-path-5">
      <path id="Path_8329" data-name="Path 8329" d="M238.536,156.719s-4.825,13.961-5.163,17.6a6.779,6.779,0,0,0,6.6,7.359c4.144.083,7.442-4.737,7.442-4.737a3.251,3.251,0,0,0,3.89-.166c2.2-1.522,7.294-14.979,7.294-14.979s-2.623-4.488-9.307-5.755S238.536,156.719,238.536,156.719Z" transform="translate(-233.348 -155.615)" fill="#fff" stroke="#263238" stroke-linecap="round" stroke-linejoin="round" stroke-width="0.75"/>
    </clipPath>
    <clipPath id="clip-path-6">
      <path id="Path_8344" data-name="Path 8344" d="M309.892,168.34s.847,8.123,2.54,11.93,4.026,11.954,3.635,16.578c-.278,3.357-1.439,3.807-2.368,3.807s-3.914-2.043-5.838-5.755c-3.594-6.921-2.534-12.013-1.439-16.075S309.892,168.34,309.892,168.34Z" transform="translate(-305.38 -168.34)" fill="#263238" stroke="#263238" stroke-linecap="round" stroke-linejoin="round" stroke-width="0.75"/>
    </clipPath>
  </defs>
  <g id="Graduation-bro" transform="translate(-50.74 -92.472)">
    <g id="freepik--background-simple--inject-33" transform="translate(55.347 92.472)">
      <path id="Path_8287" data-name="Path 8287" d="M263.779,163.3c-4.216-16.158-11.249-31.22-18.561-41.551-17.638-24.82-58.639-35.761-86.945-25.358-24.139,8.881-32.564,35.666-53.671,48.5-19.4,11.806-37,21.433-43.813,43.938-14.334,47.549,42.339,85.453,84.666,73.417,13.363-3.8,24.666-11.812,38.923-11.841,28.917-.1,39.106,3.866,62.5-11.759C269.966,223.212,271.162,191.589,263.779,163.3Z" transform="translate(-58.521 -92.472)" fill="#92e3a9"/>
      <path id="Path_8288" data-name="Path 8288" d="M263.779,163.3c-4.216-16.158-11.249-31.22-18.561-41.551-17.638-24.82-58.639-35.761-86.945-25.358-24.139,8.881-32.564,35.666-53.671,48.5-19.4,11.806-37,21.433-43.813,43.938-14.334,47.549,42.339,85.453,84.666,73.417,13.363-3.8,24.666-11.812,38.923-11.841,28.917-.1,39.106,3.866,62.5-11.759C269.966,223.212,271.162,191.589,263.779,163.3Z" transform="translate(-58.521 -92.472)" fill="#fff" opacity="0.8"/>
    </g>
    <g id="freepik--Plants--inject-33" transform="translate(50.74 214.905)">
      <path id="Path_8289" data-name="Path 8289" d="M279.723,387.52c-2.333,0-2.333,2.593-4.671,2.593s-2.333-2.593-4.666-2.593-2.368,2.593-4.671,2.593-2.339-2.593-4.671-2.593-2.333,2.593-4.671,2.593-2.333-2.593-4.671-2.593-2.333,2.593-4.666,2.593-2.339-2.593-4.671-2.593-2.333,2.593-4.671,2.593-2.333-2.593-4.666-2.593-2.339,2.593-4.671,2.593-2.333-2.593-4.666-2.593-2.368,2.593-4.671,2.593-2.333-2.593-4.665-2.593-2.333,2.593-4.671,2.593-2.333-2.593-4.666-2.593-2.333,2.593-4.666,2.593-2.339-2.593-4.671-2.593-2.333,2.593-4.666,2.593-2.333-2.593-4.666-2.593-2.333,2.593-4.671,2.593-2.333-2.593-4.666-2.593-2.333,2.593-4.671,2.593-2.333-2.593-4.666-2.593-2.368,2.593-4.671,2.593-2.333-2.593-4.666-2.593-2.339,2.593-4.671,2.593-2.333-2.593-4.666-2.593-2.339,2.593-4.671,2.593-2.333-2.593-4.666-2.593-2.327,2.593-4.695,2.593-2.333-2.593-4.666-2.593-2.333,2.593-4.666,2.593-2.339-2.593-4.671-2.593-2.333,2.593-4.666,2.593-2.339-2.593-4.671-2.593-2.333,2.593-4.666,2.593-2.333-2.593-4.671-2.593-2.333,2.593-4.666,2.593-2.333-2.593-4.666-2.593-2.333,2.593-4.671,2.593-2.333-2.593-4.666-2.593-2.333,2.593-4.666,2.593-2.333-2.593-4.671-2.593-2.333,2.593-4.666,2.593-2.333-2.593-4.666-2.593-2.333,2.593-4.671,2.593S58,387.52,55.63,387.52s-2.333,2.593-4.666,2.593H50.74v8.644h233v-8.733C282.044,389.58,281.8,387.52,279.723,387.52Z" transform="translate(-50.74 -335.264)" fill="#92e3a9"/>
      <line id="Line_107" data-name="Line 107" y1="23.926" transform="translate(51.309 37.916)" fill="none" stroke="#263238" stroke-width="1.655"/>
      <line id="Line_108" data-name="Line 108" x2="11.042" y2="8.1" transform="translate(40.267 39.023)" fill="none" stroke="#263238" stroke-width="1.655"/>
      <line id="Line_109" data-name="Line 109" y1="16.56" x2="12.516" transform="translate(51.309 38.656)" fill="none" stroke="#263238" stroke-width="1.655"/>
      <path id="Path_8290" data-name="Path 8290" d="M150.074,338.994v-7.626a32.1,32.1,0,0,0-32.108-32.108h.006a32.1,32.1,0,0,0-32.1,32.108v7.626Z" transform="translate(-65.071 -299.26)" fill="#92e3a9"/>
      <path id="Path_8291" data-name="Path 8291" d="M150.074,338.994v-7.626a32.1,32.1,0,0,0-32.108-32.108h.006a32.1,32.1,0,0,0-32.1,32.108v7.626Z" transform="translate(-65.071 -299.26)" fill="#fff" opacity="0.5"/>
      <path id="Path_8292" data-name="Path 8292" d="M85.866,350.254h64.2v-7.626a31.976,31.976,0,0,0-2.962-13.443l-.176.169a4.287,4.287,0,0,0-7.756-.059,2.368,2.368,0,0,0-1.415-.468,2.285,2.285,0,0,0-2.232,1.634,2.391,2.391,0,0,0-3.428-.5,2.368,2.368,0,0,0-4.435-.3,2.4,2.4,0,0,0-1.356-.414,2.368,2.368,0,0,0-1.587.592,4.281,4.281,0,0,0-7.7-.26,2.368,2.368,0,0,0-1.918-.959,2.285,2.285,0,0,0-2.238,1.646,2.291,2.291,0,0,0-2.167-1.439,2.368,2.368,0,0,0-1.776.817,2.368,2.368,0,0,0-4.381.136,4.34,4.34,0,0,0-6.513.444,2.268,2.268,0,0,0-2.274-1.812,2.3,2.3,0,0,0-2.161,1.421,2.368,2.368,0,0,0-1.735-.693,2.292,2.292,0,0,0-.669.107,4.038,4.038,0,0,0-1.551-1.741,31.937,31.937,0,0,0-3.783,15.127Z" transform="translate(-65.066 -310.521)" fill="#263238" opacity="0.1"/>
      <path id="Path_8293" data-name="Path 8293" d="M150.111,349.093a32.156,32.156,0,0,0-.622-6.317,6.351,6.351,0,0,0-.894-.065,5.346,5.346,0,0,0-4.737,2.433,3.345,3.345,0,0,0-1.729-.468,2.783,2.783,0,0,0-2.724,1.634,3.061,3.061,0,0,0-2.368-1.012,3.316,3.316,0,0,0-1.776.509,2.756,2.756,0,0,0-2.765-1.776,2.86,2.86,0,0,0-2.647,1.451,3.375,3.375,0,0,0-1.646-.414,3.3,3.3,0,0,0-1.936.592,5.209,5.209,0,0,0-4.778-2.564,5.338,5.338,0,0,0-4.636,2.3,3.114,3.114,0,0,0-2.339-.959,2.783,2.783,0,0,0-2.729,1.646,2.865,2.865,0,0,0-2.641-1.439,3.2,3.2,0,0,0-2.191.817,2.866,2.866,0,0,0-2.617-1.4,2.8,2.8,0,0,0-2.7,1.581A5.832,5.832,0,0,0,97.9,344.38a5.637,5.637,0,0,0-4.2,1.705,2.7,2.7,0,0,0-2.771-1.812,2.883,2.883,0,0,0-2.641,1.427,3.209,3.209,0,0,0-2.06-.7h0a32.346,32.346,0,0,0-.261,4.1v7.626h64.151Z" transform="translate(-65.107 -316.985)" fill="#263238" opacity="0.1"/>
      <line id="Line_110" data-name="Line 110" y1="23.926" transform="translate(181.351 37.916)" fill="none" stroke="#263238" stroke-width="1.655"/>
      <line id="Line_111" data-name="Line 111" x2="11.042" y2="8.1" transform="translate(170.309 39.023)" fill="none" stroke="#263238" stroke-width="1.655"/>
      <line id="Line_112" data-name="Line 112" y1="16.56" x2="12.516" transform="translate(181.351 38.656)" fill="none" stroke="#263238" stroke-width="1.655"/>
      <path id="Path_8294" data-name="Path 8294" d="M369.764,338.994v-7.626a32.1,32.1,0,0,0-32.108-32.108h.006a32.1,32.1,0,0,0-32.1,32.108v7.626Z" transform="translate(-154.689 -299.26)" fill="#92e3a9"/>
      <path id="Path_8295" data-name="Path 8295" d="M369.764,338.994v-7.626a32.1,32.1,0,0,0-32.108-32.108h.006a32.1,32.1,0,0,0-32.1,32.108v7.626Z" transform="translate(-154.689 -299.26)" fill="#fff" opacity="0.5"/>
      <path id="Path_8296" data-name="Path 8296" d="M305.51,350.254h64.234v-7.626a31.976,31.976,0,0,0-2.962-13.443l-.176.169a4.287,4.287,0,0,0-7.756-.059,2.368,2.368,0,0,0-1.415-.468,2.285,2.285,0,0,0-2.232,1.634,2.39,2.39,0,0,0-3.428-.5,2.368,2.368,0,0,0-4.435-.3,2.4,2.4,0,0,0-1.356-.414,2.368,2.368,0,0,0-1.587.592,4.281,4.281,0,0,0-7.7-.26,2.368,2.368,0,0,0-1.918-.959,2.285,2.285,0,0,0-2.238,1.646,2.291,2.291,0,0,0-2.167-1.439,2.368,2.368,0,0,0-1.776.817,2.368,2.368,0,0,0-4.381.136,4.34,4.34,0,0,0-6.513.444,2.268,2.268,0,0,0-2.273-1.812,2.3,2.3,0,0,0-2.161,1.421,2.368,2.368,0,0,0-1.693-.7,2.29,2.29,0,0,0-.669.107,4.014,4.014,0,0,0-1.557-1.741,31.972,31.972,0,0,0-3.777,15.127Z" transform="translate(-154.668 -310.521)" fill="#263238" opacity="0.1"/>
      <path id="Path_8297" data-name="Path 8297" d="M369.784,349.093a32.157,32.157,0,0,0-.622-6.317,6.351,6.351,0,0,0-.894-.065,5.346,5.346,0,0,0-4.737,2.433,3.345,3.345,0,0,0-1.729-.468,2.783,2.783,0,0,0-2.724,1.634,3.061,3.061,0,0,0-2.368-1.012,3.316,3.316,0,0,0-1.776.509,2.756,2.756,0,0,0-2.765-1.776,2.86,2.86,0,0,0-2.647,1.451,3.376,3.376,0,0,0-1.646-.414,3.3,3.3,0,0,0-1.936.592,5.209,5.209,0,0,0-4.778-2.564,5.338,5.338,0,0,0-4.636,2.3,3.114,3.114,0,0,0-2.339-.959,2.783,2.783,0,0,0-2.729,1.646,2.865,2.865,0,0,0-2.641-1.439,3.2,3.2,0,0,0-2.191.817,2.866,2.866,0,0,0-2.641-1.439,2.8,2.8,0,0,0-2.7,1.581,5.832,5.832,0,0,0-3.742-1.267,5.636,5.636,0,0,0-4.2,1.705,2.7,2.7,0,0,0-2.771-1.812,2.883,2.883,0,0,0-2.641,1.427,3.209,3.209,0,0,0-2.06-.7h0a32.341,32.341,0,0,0-.261,4.1v7.626h64.174Z" transform="translate(-154.709 -316.985)" fill="#263238" opacity="0.1"/>
    </g>
    <g id="freepik--Character--inject-33" transform="translate(63.848 98.605)">
      <path id="Path_8298" data-name="Path 8298" d="M294.314,116.91c-2.368-1.279-3.41-.213-4.263-1.279s2.368-3.843-4.05-6.613c0,0-.426-5.968-9.165-6.181s-6.388,5.968-8.757,7.46-2.96-.853-5.329.639-1.279,4.482-3.2,4.908-4.476-1.918-6.821-.426-2.368,2.771-3.416,2.771-3.2-.853-4.476,0-2.771,1.918-2.771,1.918h53.938S296.659,118.189,294.314,116.91Z" transform="translate(-141.898 -102.831)" fill="#fff"/>
      <path id="Path_8299" data-name="Path 8299" d="M363.1,211.554c-1.622-.882-2.368-.142-2.96-.882s1.616-2.652-2.8-4.565c0,0-.3-4.145-6.335-4.269s-4.417,4.144-6.033,5.151-2.066-.592-3.683.444-.882,3.091-2.208,3.387-3.1-1.326-4.737-.3-1.622,1.918-2.368,1.918-2.208-.592-3.1,0-1.912,1.326-1.912,1.326h37.318A1.889,1.889,0,0,0,363.1,211.554Z" transform="translate(-176.531 -143.218)" fill="#fff"/>
      <path id="Path_8300" data-name="Path 8300" d="M334.766,199.943c-1.018-.551-1.48-.089-1.847-.551s1.018-1.67-1.776-2.872c0,0-.189-2.593-3.985-2.682s-2.777,2.587-3.8,3.239-1.291-.373-2.309.278-.557,1.942-1.391,2.126-1.942-.829-2.96-.184-1.018,1.184-1.48,1.184-1.391-.367-1.948,0-1.184.835-1.184.835h23.416A1.184,1.184,0,0,0,334.766,199.943Z" transform="translate(-170.461 -139.955)" fill="#fff"/>
      <path id="Path_8301" data-name="Path 8301" d="M153.994,223.946c-3.641-1.983-5.293-.332-6.619-1.983s3.641-5.956-6.288-10.261c0,0-.663-9.272-14.21-9.6s-9.929,9.266-13.57,11.581-4.636-1.32-8.289.995-1.983,6.951-4.962,7.614-6.951-2.96-10.592-.663-3.641,4.3-5.329,4.3-4.962-1.326-6.951,0-4.3,2.96-4.3,2.96h83.766S157.617,225.935,153.994,223.946Z" transform="translate(-72.88 -143.324)" fill="#fff"/>
      <path id="Path_8302" data-name="Path 8302" d="M220,322.67s.255,7.359,2.031,12.013,9.39,17.851,11.249,21.149,2.368,4.227,2.368,4.227a68.8,68.8,0,0,0-4.144,5.672c-1.267,2.114-3.552,3.215-3.043,4.062s1.1.758,3.807.083,3.552-2.2,5.755-3.979,3.973-1.859,4.056-3.215-2.706-3.89-3.3-5.5a119.213,119.213,0,0,1-5.921-16.412c-1.948-7.7-3.807-10.148-3.89-11.078s.758-6.773.758-6.773Z" transform="translate(-132.895 -192.51)" fill="#fff"/>
      <g id="Group_12784" data-name="Group 12784" transform="translate(87.105 130.16)" clip-path="url(#clip-path)">
        <path id="Path_8303" data-name="Path 8303" d="M242.043,362.457c-.189-1.391-2.724-3.748-3.286-5.275a118.909,118.909,0,0,1-5.921-16.412c-1.948-7.7-3.807-10.148-3.89-11.078s.758-6.773.758-6.773l-9.7-.249s.089,2.641.545,5.761c.545.083,1.184.154,1.948.2a13.245,13.245,0,0,0,4.9-.539s-.545,2.173,1.267,7.792,7.614,19.219,8.881,21.575A26.029,26.029,0,0,0,242.043,362.457Z" transform="translate(-220 -322.67)" fill="#92e3a9"/>
        <path id="Path_8304" data-name="Path 8304" d="M242.043,362.457c-.189-1.391-2.724-3.748-3.286-5.275a118.909,118.909,0,0,1-5.921-16.412c-1.948-7.7-3.807-10.148-3.89-11.078s.758-6.773.758-6.773l-9.7-.249s.089,2.641.545,5.761c.545.083,1.184.154,1.948.2a13.245,13.245,0,0,0,4.9-.539s-.545,2.173,1.267,7.792,7.614,19.219,8.881,21.575A26.029,26.029,0,0,0,242.043,362.457Z" transform="translate(-220 -322.67)" fill="#fff" opacity="0.5"/>
      </g>
      <path id="Path_8306" data-name="Path 8306" d="M220,322.67s.255,7.359,2.031,12.013,9.39,17.851,11.249,21.149,2.368,4.227,2.368,4.227a68.8,68.8,0,0,0-4.144,5.672c-1.267,2.114-3.552,3.215-3.043,4.062s1.1.758,3.807.083,3.552-2.2,5.755-3.979,3.973-1.859,4.056-3.215-2.706-3.89-3.3-5.5a119.213,119.213,0,0,1-5.921-16.412c-1.948-7.7-3.807-10.148-3.89-11.078s.758-6.773.758-6.773Z" transform="translate(-132.895 -192.51)" fill="none" stroke="#263238" stroke-linecap="round" stroke-linejoin="round" stroke-width="0.75"/>
      <path id="Path_8307" data-name="Path 8307" d="M247.817,388.349c.047-.7-.681-1.717-1.474-2.759l-3.937,3.44s-.426-1.184-.93-2.285a1.243,1.243,0,0,0-.45-.592,61.667,61.667,0,0,0-3.783,5.216c-1.267,2.114-3.552,3.215-3.043,4.062s1.1.758,3.807.083,3.552-2.2,5.755-3.979S247.735,389.7,247.817,388.349Z" transform="translate(-138.658 -218.177)" fill="#263238" stroke="#263238" stroke-linecap="round" stroke-linejoin="round" stroke-width="0.75"/>
      <path id="Path_8308" data-name="Path 8308" d="M252.68,319.691a29.71,29.71,0,0,0,3.89,7.786c2.96,4.4,14.636,16.75,15.737,18.354s3.049,8.378,3.807,10.746,3.132,1.439,3.979-1.61-3.89-9.811-4.825-11.166-5.921-7.442-8.964-14.891-4.825-11.67-4.825-11.67S253.864,318.762,252.68,319.691Z" transform="translate(-146.226 -190.295)" fill="#fff"/>
      <g id="Group_12785" data-name="Group 12785" transform="translate(106.454 126.945)" clip-path="url(#clip-path-2)">
        <path id="Path_8309" data-name="Path 8309" d="M275.267,343.8c-.93-1.35-5.921-7.442-8.964-14.891s-4.825-11.67-4.825-11.67-7.614,1.522-8.8,2.451a25.975,25.975,0,0,0,2.131,4.891,19.152,19.152,0,0,0,5.826-1.427s4.352,9.793,7.436,14.145c1.634,2.309,5.169,5.441,8.123,7.869C275.788,344.552,275.451,344.067,275.267,343.8Z" transform="translate(-252.68 -317.24)" fill="#92e3a9"/>
        <path id="Path_8310" data-name="Path 8310" d="M275.267,343.8c-.93-1.35-5.921-7.442-8.964-14.891s-4.825-11.67-4.825-11.67-7.614,1.522-8.8,2.451a25.975,25.975,0,0,0,2.131,4.891,19.152,19.152,0,0,0,5.826-1.427s4.352,9.793,7.436,14.145c1.634,2.309,5.169,5.441,8.123,7.869C275.788,344.552,275.451,344.067,275.267,343.8Z" transform="translate(-252.68 -317.24)" fill="#fff" opacity="0.5"/>
      </g>
      <path id="Path_8312" data-name="Path 8312" d="M252.68,319.691a29.71,29.71,0,0,0,3.89,7.786c2.96,4.4,14.636,16.75,15.737,18.354s3.049,8.378,3.807,10.746,3.132,1.439,3.979-1.61-3.89-9.811-4.825-11.166-5.921-7.442-8.964-14.891-4.825-11.67-4.825-11.67S253.864,318.762,252.68,319.691Z" transform="translate(-146.226 -190.295)" fill="none" stroke="#263238" stroke-linecap="round" stroke-linejoin="round" stroke-width="0.75"/>
      <path id="Path_8313" data-name="Path 8313" d="M290.1,374.636c.764,2.368,3.132,1.439,3.979-1.61s-3.89-9.811-4.825-11.166l-.249-.349c.414,1.107.841,2.214.841,2.214a1.966,1.966,0,0,0-2.031-.509c-1.35.337-.675,2.368-.675,2.368v.053C288.209,368.313,289.512,372.795,290.1,374.636Z" transform="translate(-160.216 -208.354)" fill="#263238" stroke="#263238" stroke-linecap="round" stroke-linejoin="round" stroke-width="0.75"/>
      <path id="Path_8314" data-name="Path 8314" d="M196,262.86s1.314-3,6.2-3.872,11.06,4.144,13.57,5.039,3.908-15.269,1.4-30.45-6.021-16.3-11.291-9.278S196.509,258.6,196,262.86Z" transform="translate(-123.104 -150.687)" fill="#263238" stroke="#263238" stroke-linecap="round" stroke-linejoin="round" stroke-width="0.75"/>
      <path id="Path_8315" data-name="Path 8315" d="M274.326,196.869c-7.188-13.878-12.522-15.737-16.833-18.946s-4.571-3.3-8.206-5.921a55.61,55.61,0,0,0-13.446-6.353,4.523,4.523,0,0,0-4.233.953s-3.724,1.184-8.289,5.814-.681,8.544-.681,8.544-1.184,5.163,4.825,11.084,9.473,23.185,29.6,24.2S281.508,210.742,274.326,196.869Zm-49.911-19.882c-1.421,1.983-1.433,2.9-1.285,3.292a2.232,2.232,0,0,0,.184.26.5.5,0,0,1-.184-.26,4.6,4.6,0,0,1-.409-3.552c.592-2.451,5.246-4.819,5.246-4.819s-1.451,2.12-3.564,5.08Z" transform="translate(-133.342 -128.385)" fill="#263238" stroke="#263238" stroke-linecap="round" stroke-linejoin="round" stroke-width="0.75"/>
      <path id="Path_8316" data-name="Path 8316" d="M228.25,203.367a10.794,10.794,0,0,1-3.126-.42c-1.948-.509-3.552,0-5.672,2.451s-4.654,9.053-4.654,13.961,3.049,10.657,3.049,10.657-3.387,4.825-4.737,13.961.675,31.214.675,31.214a52.268,52.268,0,0,0,18.188.592,70.115,70.115,0,0,0,16.578-4.991,73.8,73.8,0,0,0-3.9-22.925,214.61,214.61,0,0,0-7.614-20.474s2.2-8.715,2.285-14.636-2.031-7.869-3.635-8.626S228.25,203.367,228.25,203.367Z" transform="translate(-129.895 -143.598)" fill="#263238"/>
      <g id="Group_12786" data-name="Group 12786" transform="translate(82.751 59.17)" clip-path="url(#clip-path-3)">
        <path id="Path_8317" data-name="Path 8317" d="M228.25,203.367a10.794,10.794,0,0,1-3.126-.42c-1.948-.509-3.552,0-5.672,2.451s-4.654,9.053-4.654,13.961,3.049,10.657,3.049,10.657-3.387,4.825-4.737,13.961.675,31.214.675,31.214a52.268,52.268,0,0,0,18.188.592,70.115,70.115,0,0,0,16.578-4.991,73.8,73.8,0,0,0-3.9-22.925,214.61,214.61,0,0,0-7.614-20.474s2.2-8.715,2.285-14.636-2.031-7.869-3.635-8.626S228.25,203.367,228.25,203.367Z" transform="translate(-212.646 -202.768)" fill="#fff" stroke="#263238" stroke-linecap="round" stroke-linejoin="round" stroke-width="0.75" opacity="0.3"/>
      </g>
      <path id="Path_8319" data-name="Path 8319" d="M228.25,203.367a10.794,10.794,0,0,1-3.126-.42c-1.948-.509-3.552,0-5.672,2.451s-4.654,9.053-4.654,13.961,3.049,10.657,3.049,10.657-3.387,4.825-4.737,13.961.675,31.214.675,31.214a52.268,52.268,0,0,0,18.188.592,70.115,70.115,0,0,0,16.578-4.991,73.8,73.8,0,0,0-3.9-22.925,214.61,214.61,0,0,0-7.614-20.474s2.2-8.715,2.285-14.636-2.031-7.869-3.635-8.626S228.25,203.367,228.25,203.367Z" transform="translate(-129.895 -143.598)" fill="none" stroke="#263238" stroke-linecap="round" stroke-linejoin="round" stroke-width="0.75"/>
      <path id="Path_8320" data-name="Path 8320" d="M235.11,235.07a11.38,11.38,0,0,0,4.991,6.009" transform="translate(-139.059 -156.775)" fill="none" stroke="#263238" stroke-linecap="round" stroke-linejoin="round" stroke-width="0.75"/>
      <path id="Path_8321" data-name="Path 8321" d="M235.212,193.78a21.84,21.84,0,0,1-1.267,5.329c-.93,2.114-1.522,1.61-2.368,5.417s2.031,8.881,5.246,6.767,5.246-6.43,5.074-8.04-.93-1.942-.93-4.145a18.294,18.294,0,0,1,.592-4.316S237.16,195.13,235.212,193.78Z" transform="translate(-137.556 -139.932)" fill="#fff"/>
      <g id="Group_12787" data-name="Group 12787" transform="translate(93.871 53.848)" clip-path="url(#clip-path-4)">
        <path id="Path_8322" data-name="Path 8322" d="M236.972,193.78a22.251,22.251,0,0,1-1.232,5.24c1.054,1.149,3.2,2.433,7.034.953a7.451,7.451,0,0,1-.047-.864,18.229,18.229,0,0,1,.592-4.316S238.919,195.13,236.972,193.78Z" transform="translate(-233.186 -193.78)" fill="#92e3a9"/>
        <path id="Path_8323" data-name="Path 8323" d="M236.972,193.78a22.251,22.251,0,0,1-1.232,5.24c1.054,1.149,3.2,2.433,7.034.953a7.451,7.451,0,0,1-.047-.864,18.229,18.229,0,0,1,.592-4.316S238.919,195.13,236.972,193.78Z" transform="translate(-233.186 -193.78)" fill="#fff" opacity="0.5"/>
      </g>
      <path id="Path_8325" data-name="Path 8325" d="M235.212,193.78a21.84,21.84,0,0,1-1.267,5.329c-.93,2.114-1.522,1.61-2.368,5.417s2.031,8.881,5.246,6.767,5.246-6.43,5.074-8.04-.93-1.942-.93-4.145a18.294,18.294,0,0,1,.592-4.316S237.16,195.13,235.212,193.78Z" transform="translate(-137.556 -139.932)" fill="none" stroke="#263238" stroke-linecap="round" stroke-linejoin="round" stroke-width="0.75"/>
      <path id="Path_8326" data-name="Path 8326" d="M238.536,156.719s-4.825,13.961-5.163,17.6a6.779,6.779,0,0,0,6.6,7.359c4.144.083,7.442-4.737,7.442-4.737a3.251,3.251,0,0,0,3.89-.166c2.2-1.522,7.294-14.979,7.294-14.979s-2.623-4.488-9.307-5.755S238.536,156.719,238.536,156.719Z" transform="translate(-138.34 -124.363)" fill="#fff"/>
      <g id="Group_12788" data-name="Group 12788" transform="translate(95.008 31.252)" clip-path="url(#clip-path-5)">
        <path id="Path_8327" data-name="Path 8327" d="M250.66,156.059a24.353,24.353,0,0,0-3.552-.409l-2.007,7.1s2.9,8.378,2.718,10.734a7.459,7.459,0,0,1-7.436,6.886,9.977,9.977,0,0,1-3.641-.657,6.643,6.643,0,0,0,4.642,1.989c4.144.083,7.442-4.737,7.442-4.737a3.251,3.251,0,0,0,3.89-.166c2.2-1.522,7.271-14.991,7.271-14.991S257.344,157.326,250.66,156.059Z" transform="translate(-234.732 -155.629)" fill="#92e3a9"/>
        <path id="Path_8328" data-name="Path 8328" d="M250.66,156.059a24.353,24.353,0,0,0-3.552-.409l-2.007,7.1s2.9,8.378,2.718,10.734a7.459,7.459,0,0,1-7.436,6.886,9.977,9.977,0,0,1-3.641-.657,6.643,6.643,0,0,0,4.642,1.989c4.144.083,7.442-4.737,7.442-4.737a3.251,3.251,0,0,0,3.89-.166c2.2-1.522,7.271-14.991,7.271-14.991S257.344,157.326,250.66,156.059Z" transform="translate(-234.732 -155.629)" fill="#fff" opacity="0.5"/>
      </g>
      <path id="Path_8330" data-name="Path 8330" d="M238.536,156.719s-4.825,13.961-5.163,17.6a6.779,6.779,0,0,0,6.6,7.359c4.144.083,7.442-4.737,7.442-4.737a3.251,3.251,0,0,0,3.89-.166c2.2-1.522,7.294-14.979,7.294-14.979s-2.623-4.488-9.307-5.755S238.536,156.719,238.536,156.719Z" transform="translate(-138.34 -124.363)" fill="none" stroke="#263238" stroke-linecap="round" stroke-linejoin="round" stroke-width="0.75"/>
      <path id="Path_8331" data-name="Path 8331" d="M243.6,175.06a3.452,3.452,0,0,1-1.61,2.031c-1.267.675-2.368.592-1.942,1.267a2.747,2.747,0,0,0,1.522.93" transform="translate(-141.034 -132.295)" fill="none" stroke="#263238" stroke-linecap="round" stroke-linejoin="round" stroke-width="0.75"/>
      <path id="Path_8332" data-name="Path 8332" d="M241.249,184.63a4.4,4.4,0,0,0,2.368.847,4.524,4.524,0,0,0,2.877-.758s-2.623,3.043-3.979,3.043S241.249,184.63,241.249,184.63Z" transform="translate(-141.562 -136.199)" fill="#263238"/>
      <path id="Path_8333" data-name="Path 8333" d="M248.68,175.919a1.6,1.6,0,0,1,2.706.337" transform="translate(-144.594 -132.391)" fill="none" stroke="#263238" stroke-linecap="round" stroke-linejoin="round" stroke-width="0.75"/>
      <path id="Path_8334" data-name="Path 8334" d="M240.54,174.782a1.267,1.267,0,0,1,2.114.42" transform="translate(-141.274 -132.018)" fill="none" stroke="#263238" stroke-linecap="round" stroke-linejoin="round" stroke-width="0.75"/>
      <path id="Path_8335" data-name="Path 8335" d="M240,171.123a2.368,2.368,0,0,1,2.285-1.356" transform="translate(-141.053 -130.134)" fill="none" stroke="#263238" stroke-linecap="round" stroke-linejoin="round" stroke-width="0.75"/>
      <path id="Path_8336" data-name="Path 8336" d="M249.68,169.9s.93-.343,1.776,1.35" transform="translate(-145.002 -130.179)" fill="none" stroke="#263238" stroke-linecap="round" stroke-linejoin="round" stroke-width="0.75"/>
      <path id="Path_8337" data-name="Path 8337" d="M250.82,167.63s2.368,5.074,4.571,10.4,11.166,11.93,12.706,12.357,6.43-7.786,6.43-7.786-8.585-6.063-11.735-8.7S256.155,168.477,250.82,167.63Z" transform="translate(-145.467 -129.264)" fill="#263238" stroke="#263238" stroke-linecap="round" stroke-linejoin="round" stroke-width="0.75"/>
      <path id="Path_8338" data-name="Path 8338" d="M235.359,155.559l-9.639-6.175s11.841-4.908,14.8-7.614c0,0,19.118,12.433,26.14,13.28,0,0-10.74,4.145-15.648,5.329Z" transform="translate(-135.228 -118.715)" fill="#92e3a9" stroke="#263238" stroke-linecap="round" stroke-linejoin="round" stroke-width="0.75"/>
      <path id="Path_8339" data-name="Path 8339" d="M260.845,161.8s-2.623-4.488-9.307-5.755-10.74.675-10.74.675-.9,2.605-1.948,5.861a15.5,15.5,0,0,1,8.881.592,35.965,35.965,0,0,1,10.178,5.856C259.49,165.346,260.845,161.8,260.845,161.8Z" transform="translate(-140.584 -124.363)" fill="#92e3a9" stroke="#263238" stroke-linecap="round" stroke-linejoin="round" stroke-width="0.75"/>
      <path id="Path_8340" data-name="Path 8340" d="M221.331,145.186s-.681,4.9-4.233,4.4-2.285-5.246,1.776-9.053,2.2-8.289-.509-9.053" transform="translate(-130.862 -114.518)" fill="none" stroke="#263238" stroke-linecap="round" stroke-linejoin="round" stroke-width="0.75"/>
      <path id="Path_8341" data-name="Path 8341" d="M214.645,130.193a7.08,7.08,0,0,0-3.724-1.35c-2.623-.337-6.85-1.184-6.684-.847s.083,1.184.255,1.776.509,1.356,1.439,1.356,7.359-.172,8.123-.172S214.645,130.193,214.645,130.193Z" transform="translate(-126.462 -113.065)" fill="#263238" stroke="#263238" stroke-linecap="round" stroke-linejoin="round" stroke-width="0.75"/>
      <path id="Path_8342" data-name="Path 8342" d="M309.892,168.34s.847,8.123,2.54,11.93,4.026,11.954,3.635,16.578c-.278,3.357-1.439,3.807-2.368,3.807s-3.914-2.043-5.838-5.755c-3.594-6.921-2.534-12.013-1.439-16.075S309.892,168.34,309.892,168.34Z" transform="translate(-167.724 -129.554)" fill="#263238"/>
      <g id="Group_12789" data-name="Group 12789" transform="translate(137.656 38.786)" clip-path="url(#clip-path-6)">
        <path id="Path_8343" data-name="Path 8343" d="M309.983,168.34s.847,8.123,2.54,11.93,3.931,11.676,3.635,16.578c-.2,3.363-1.439,3.807-2.368,3.807s-2.623,1.35-5.838-5.755-2.534-12.013-1.439-16.075S309.983,168.34,309.983,168.34Z" transform="translate(-305.471 -168.34)" fill="#fff" stroke="#263238" stroke-linecap="round" stroke-linejoin="round" stroke-width="0.75" opacity="0.3"/>
      </g>
      <path id="Path_8345" data-name="Path 8345" d="M309.892,168.34s.847,8.123,2.54,11.93,4.026,11.954,3.635,16.578c-.278,3.357-1.439,3.807-2.368,3.807s-3.914-2.043-5.838-5.755c-3.594-6.921-2.534-12.013-1.439-16.075S309.892,168.34,309.892,168.34Z" transform="translate(-167.724 -129.554)" fill="none" stroke="#263238" stroke-linecap="round" stroke-linejoin="round" stroke-width="0.75"/>
      <path id="Path_8346" data-name="Path 8346" d="M310.218,160.668s5.417-7.277,6.43-9.307,2.623-4.144,3.807-4.316,4.233,2.368,4.4,3.979-1.687,3.552-3.215,4.227a5.21,5.21,0,0,1-3.126.255s-4.4,7.952-6.856,11.676a34.989,34.989,0,0,1-4.4,5.838c-.509.42-1.776-1.6-1.012-4.4S310.218,160.668,310.218,160.668Z" transform="translate(-167.979 -120.864)" fill="#fff" stroke="#263238" stroke-linecap="round" stroke-linejoin="round" stroke-width="0.75"/>
      <path id="Path_8347" data-name="Path 8347" d="M334.127,148.413s-1.776,2.664-1.587,3.168.793,1.184,1.155.722,1.776-2.451,1.729-3.245S334.772,148.052,334.127,148.413Z" transform="translate(-178.798 -121.356)" fill="#fff" stroke="#263238" stroke-linecap="round" stroke-linejoin="round" stroke-width="0.75"/>
      <path id="Path_8348" data-name="Path 8348" d="M336.37,150.678s-1.581,2.368-1.391,2.789.693,1.012,1.012.634,1.581-2.155,1.516-2.854S336.939,150.364,336.37,150.678Z" transform="translate(-179.792 -122.289)" fill="#fff" stroke="#263238" stroke-linecap="round" stroke-linejoin="round" stroke-width="0.75"/>
      <path id="Path_8349" data-name="Path 8349" d="M331.7,145.485s-2.12,3.132-1.865,3.724.93,1.356,1.356.847,2.114-2.877,2.031-3.807S332.452,145.064,331.7,145.485Z" transform="translate(-177.691 -120.151)" fill="#fff" stroke="#263238" stroke-linecap="round" stroke-linejoin="round" stroke-width="0.75"/>
      <path id="Path_8350" data-name="Path 8350" d="M328.974,143.2s-2.114,3.126-1.859,3.724.93,1.35,1.35.841,2.12-2.872,2.031-3.807S329.738,142.775,328.974,143.2Z" transform="translate(-176.582 -119.217)" fill="#fff" stroke="#263238" stroke-linecap="round" stroke-linejoin="round" stroke-width="0.75"/>
      <path id="Path_8351" data-name="Path 8351" d="M323.84,152.038s2.285-5.838,2.795-5.838,3.3,1.6,3.464,2.368,0,.847-.5.93a6.46,6.46,0,0,1-2.114-.847,3.129,3.129,0,0,1-.343,3.043,3.518,3.518,0,0,1-2.031,1.356" transform="translate(-175.254 -120.522)" fill="#fff" stroke="#263238" stroke-linecap="round" stroke-linejoin="round" stroke-width="0.75"/>
      <path id="Path_8352" data-name="Path 8352" d="M186.6,146.152s-4.452-7.9-5.2-10.065-2.078-4.441-3.233-4.737-4.494,1.818-4.867,3.393,1.231,3.736,2.658,4.6a5.24,5.24,0,0,0,3.067.669s3.363,8.443,5.329,12.433a35.945,35.945,0,0,0,3.623,6.347c.45.486,1.966-1.374,1.563-4.239S186.6,146.152,186.6,146.152Z" transform="translate(-113.819 -114.454)" fill="#fff" stroke="#263238" stroke-linecap="round" stroke-linejoin="round" stroke-width="0.75"/>
      <path id="Path_8353" data-name="Path 8353" d="M175.644,132.066s1.451,2.872,1.184,3.345-.935,1.042-1.237.592-1.474-2.658-1.3-3.434A.783.783,0,0,1,175.644,132.066Z" transform="translate(-114.241 -114.66)" fill="#fff" stroke="#263238" stroke-linecap="round" stroke-linejoin="round" stroke-width="0.75"/>
      <path id="Path_8354" data-name="Path 8354" d="M173.371,134.056s1.273,2.522,1.03,2.96-.817.918-1.083.5-1.3-2.339-1.149-3.02A.7.7,0,0,1,173.371,134.056Z" transform="translate(-113.377 -115.484)" fill="#fff" stroke="#263238" stroke-linecap="round" stroke-linejoin="round" stroke-width="0.75"/>
      <path id="Path_8355" data-name="Path 8355" d="M178.057,129.431s1.7,3.369,1.374,3.925-1.089,1.226-1.451.669-1.735-3.12-1.533-4.032S177.358,128.916,178.057,129.431Z" transform="translate(-115.12 -113.564)" fill="#fff" stroke="#263238" stroke-linecap="round" stroke-linejoin="round" stroke-width="0.75"/>
      <path id="Path_8356" data-name="Path 8356" d="M181.037,127.5s1.705,3.375,1.374,3.931-1.089,1.226-1.445.669-1.741-3.12-1.539-4.032S180.35,126.987,181.037,127.5Z" transform="translate(-116.335 -112.778)" fill="#fff" stroke="#263238" stroke-linecap="round" stroke-linejoin="round" stroke-width="0.75"/>
      <path id="Path_8357" data-name="Path 8357" d="M182.865,136.9s-1.528-6.081-2.031-6.14-3.475,1.184-3.742,1.912-.107.835.391.983a6.292,6.292,0,0,0,2.2-.592,3.129,3.129,0,0,0-.047,3.061,3.482,3.482,0,0,0,1.841,1.6" transform="translate(-115.339 -114.223)" fill="#fff" stroke="#263238" stroke-linecap="round" stroke-linejoin="round" stroke-width="0.75"/>
      <path id="Path_8358" data-name="Path 8358" d="M252.219,189.319s-1.439-2.706-3.215-2.285-3.724,6.347-3.724,14.21,4.571,23.434,8.289,33.156,4.654,23.86,4.316,32.659-1.859,9.982-1.439,10.4,2.031.509,10.918-3.381,8.709-8.04,8.709-8.04l-1.522-5.921a27.113,27.113,0,0,1,8.632-1.012c5.5.089,10.74-3.215,10.912-7.786s-5.921-10.065-8.461-12.185,3.766-6.726-9.307-14.973c-6.986-4.4-10.657-11.93-12.268-15.145s-1.35-5.074.337-6.513,8.8-4.062,13.452-3.807a74.942,74.942,0,0,1,11.338,1.948s-5.5-2.706-5.755-13.369a75.193,75.193,0,0,1,1.948-18.946s-2.2,2.031-6.258,5.755-3.807,4.654-7.022,4.654-6.092.675-7.1,3.3-2.2,4.145-4.648,4.062-3.215-1.693-5.589.083S252.219,189.319,252.219,189.319Z" transform="translate(-143.207 -129.55)" fill="#92e3a9" stroke="#263238" stroke-linecap="round" stroke-linejoin="round" stroke-width="0.75"/>
      <path id="Path_8359" data-name="Path 8359" d="M255.27,203.78s-3.215,7.022-2.368,17.762,5.921,23.262,12.86,31.3,11.332,20.811,11.332,20.811" transform="translate(-146.259 -144.011)" fill="none" stroke="#263238" stroke-linecap="round" stroke-linejoin="round" stroke-width="0.75"/>
      <path id="Path_8360" data-name="Path 8360" d="M268.11,241.07a49.73,49.73,0,0,0,8.715,17.513c6.43,7.951,16.75,9.982,16.75,9.982" transform="translate(-152.52 -159.223)" fill="none" stroke="#263238" stroke-linecap="round" stroke-linejoin="round" stroke-width="0.75"/>
      <path id="Path_8361" data-name="Path 8361" d="M264.962,222.5s-1.012,3.132,1.356,8.206,2.96,5.755,2.96,5.755" transform="translate(-151.148 -151.648)" fill="none" stroke="#263238" stroke-linecap="round" stroke-linejoin="round" stroke-width="0.75"/>
      <path id="Path_8362" data-name="Path 8362" d="M274.5,226.21a16.056,16.056,0,0,0-3.635,4.737" transform="translate(-153.642 -153.161)" fill="none" stroke="#263238" stroke-linecap="round" stroke-linejoin="round" stroke-width="0.75"/>
      <path id="Path_8363" data-name="Path 8363" d="M298.42,200.985c.87.047,1.812.148,2.765.272a5.044,5.044,0,0,1-3.025-3.689c-.864-3.3,1.812-12.433,2.96-16.317a32.313,32.313,0,0,0,1.255-7.342l-2.487,2.285a30.161,30.161,0,0,1-.935,4.423c-2.078,7.075-3.872,14.1-2.96,17.525a8.562,8.562,0,0,0,1.3,2.842C297.674,200.968,298.053,200.968,298.42,200.985Z" transform="translate(-163.795 -131.826)" fill="#263238"/>
      <path id="Path_8364" data-name="Path 8364" d="M206.715,180.022s.847-2.712-.847-4.062-3.464.675-3.464.675a8.845,8.845,0,0,1-3.47-3.89c-1.439-2.877.255-4.737-3.049-8.881s-5.412-5.411-4.565-9.3,4.4-6.767,1.859-8.461-8.715-1.61-13.28,3.552-4.062,8.034-5.838,9.982-5.672,4.4-3.3,8.206,6.347,5.246,10.065,5.838,9.053,5.074,10.237,10.065-.337,10.829-2.623,15.571-8.715,10.995-10.657,20.64,4.144,14.636,5.246,18.443,2.623,13.535.847,19.035a13.943,13.943,0,0,1-6.454,7.8s2.457,3.635,8.544,4.31,7.277,0,7.786-2.623a61.219,61.219,0,0,0-.93-20.811c-2.031-9.39-6.43-13.618-3.552-21.907s5.583-18.277,8.709-25.554S206.715,180.022,206.715,180.022Z" transform="translate(-112.504 -120.081)" fill="#92e3a9" stroke="#263238" stroke-linecap="round" stroke-linejoin="round" stroke-width="0.75"/>
      <path id="Path_8365" data-name="Path 8365" d="M208.911,197.06s1.693.172.764,4.488a98.048,98.048,0,0,1-4.145,12.1" transform="translate(-126.992 -141.27)" fill="none" stroke="#263238" stroke-linecap="round" stroke-linejoin="round" stroke-width="0.75"/>
      <path id="Path_8366" data-name="Path 8366" d="M190.9,268.438s-1.776-2.96-.847-10.4,4.594-17.087,7.555-25.637,4.31-11.759,4.31-11.759" transform="translate(-120.569 -150.889)" fill="none" stroke="#263238" stroke-linecap="round" stroke-linejoin="round" stroke-width="0.75"/>
      <path id="Path_8367" data-name="Path 8367" d="M218.455,199.64s0,1.6-3.979,9.811-6,14.973-6.086,19.8" transform="translate(-128.159 -142.322)" fill="none" stroke="#263238" stroke-linecap="round" stroke-linejoin="round" stroke-width="0.75"/>
      <path id="Path_8368" data-name="Path 8368" d="M179,166.228c.71-.592,1.445-1.184,2.108-1.806a13.489,13.489,0,0,0,3.327-5.636c.592-1.557,1.078-2.907,2.232-3.748,1.385-1.024,4.1.059,5.867,1.018A18.8,18.8,0,0,1,193.5,154c-2.1-1.137-5.708-2.593-8.165-.782-1.693,1.243-2.368,3.037-3.014,4.778a11.427,11.427,0,0,1-2.765,4.784c-.592.592-1.273,1.119-1.978,1.7-2.09,1.711-4.523,3.712-5.607,6.957A10.764,10.764,0,0,0,173.8,173.4C174.356,170.047,176.63,168.176,179,166.228Z" transform="translate(-113.302 -123.037)" fill="#263238"/>
    </g>
    <g id="freepik--Ground--inject-33" transform="translate(50.752 275.918)">
      <rect id="Rectangle_4453" data-name="Rectangle 4453" width="232.991" height="3.783" transform="translate(0 0)" fill="#263238"/>
    </g>
  </g>
</svg>
